<svg width="164" height="164" viewBox="0 0 164 164" fill="none" xmlns="http://www.w3.org/2000/svg">
<mask id="path-1-inside-1_255_2271" fill="white">
<path d="M5.15984 154.26C7.82186 154.26 9.97984 156.409 9.97984 159.06C9.97984 161.711 7.82186 163.86 5.15984 163.86C2.49783 163.86 0.339844 161.711 0.339844 159.06C0.339844 156.409 2.49783 154.26 5.15984 154.26Z"/>
<path d="M5.15984 115.86C7.82186 115.86 9.97984 118.009 9.97984 120.66C9.97984 123.311 7.82186 125.46 5.15984 125.46C2.49783 125.46 0.339844 123.311 0.339844 120.66C0.339844 118.009 2.49783 115.86 5.15984 115.86Z"/>
<path d="M5.15984 77.4601C7.82186 77.4601 9.97984 79.6092 9.97984 82.2602C9.97984 84.9111 7.82186 87.0602 5.15984 87.0602C2.49783 87.0602 0.339844 84.9111 0.339844 82.2602C0.339844 79.6092 2.49783 77.4601 5.15984 77.4601Z"/>
<path d="M5.15984 39.0602C7.82186 39.0602 9.97984 41.2092 9.97984 43.8602C9.97984 46.5111 7.82186 48.6602 5.15984 48.6602C2.49783 48.6602 0.339844 46.5111 0.339844 43.8602C0.339844 41.2092 2.49783 39.0602 5.15984 39.0602Z"/>
<path d="M5.15984 0.660156C7.82186 0.660156 9.97984 2.80918 9.97984 5.46014C9.97984 8.11111 7.82186 10.2601 5.15984 10.2601C2.49783 10.2601 0.339844 8.11111 0.339844 5.46014C0.339844 2.80918 2.49783 0.660156 5.15984 0.660156Z"/>
<path d="M43.7198 154.26C46.3819 154.26 48.5398 156.409 48.5398 159.06C48.5398 161.711 46.3819 163.86 43.7198 163.86C41.0578 163.86 38.8998 161.711 38.8998 159.06C38.8998 156.409 41.0578 154.26 43.7198 154.26Z"/>
<path d="M43.7198 115.86C46.3819 115.86 48.5398 118.009 48.5398 120.66C48.5398 123.311 46.3819 125.46 43.7198 125.46C41.0578 125.46 38.8998 123.311 38.8998 120.66C38.8998 118.009 41.0578 115.86 43.7198 115.86Z"/>
<path d="M43.7198 77.4601C46.3819 77.4601 48.5398 79.6092 48.5398 82.2602C48.5398 84.9111 46.3819 87.0602 43.7198 87.0602C41.0578 87.0602 38.8998 84.9111 38.8998 82.2602C38.8998 79.6092 41.0578 77.4601 43.7198 77.4601Z"/>
<path d="M43.7198 39.0602C46.3819 39.0602 48.5398 41.2092 48.5398 43.8602C48.5398 46.5111 46.3819 48.6602 43.7198 48.6602C41.0578 48.6602 38.8998 46.5111 38.8998 43.8602C38.8998 41.2092 41.0578 39.0602 43.7198 39.0602Z"/>
<path d="M43.7198 0.660156C46.3819 0.660156 48.5398 2.80918 48.5398 5.46014C48.5398 8.11111 46.3819 10.2601 43.7198 10.2601C41.0578 10.2601 38.8998 8.11111 38.8998 5.46014C38.8998 2.80918 41.0578 0.660156 43.7198 0.660156Z"/>
<path d="M82.2798 154.26C84.9418 154.26 87.0998 156.409 87.0998 159.06C87.0998 161.711 84.9418 163.86 82.2798 163.86C79.6178 163.86 77.4598 161.711 77.4598 159.06C77.4598 156.409 79.6178 154.26 82.2798 154.26Z"/>
<path d="M82.2798 115.86C84.9418 115.86 87.0998 118.009 87.0998 120.66C87.0998 123.311 84.9418 125.46 82.2798 125.46C79.6178 125.46 77.4598 123.311 77.4598 120.66C77.4598 118.009 79.6178 115.86 82.2798 115.86Z"/>
<path d="M82.2798 77.4601C84.9418 77.4601 87.0998 79.6092 87.0998 82.2602C87.0998 84.9111 84.9418 87.0602 82.2798 87.0602C79.6178 87.0602 77.4598 84.9111 77.4598 82.2602C77.4598 79.6092 79.6178 77.4601 82.2798 77.4601Z"/>
<path d="M82.2798 39.0602C84.9418 39.0602 87.0998 41.2092 87.0998 43.8602C87.0998 46.5111 84.9418 48.6602 82.2798 48.6602C79.6178 48.6602 77.4598 46.5111 77.4598 43.8602C77.4598 41.2092 79.6178 39.0602 82.2798 39.0602Z"/>
<path d="M82.2798 0.660156C84.9418 0.660156 87.0998 2.80918 87.0998 5.46014C87.0998 8.11111 84.9418 10.2601 82.2798 10.2601C79.6178 10.2601 77.4598 8.11111 77.4598 5.46014C77.4598 2.80918 79.6178 0.660156 82.2798 0.660156Z"/>
<path d="M120.84 154.26C123.502 154.26 125.66 156.409 125.66 159.06C125.66 161.711 123.502 163.86 120.84 163.86C118.178 163.86 116.02 161.711 116.02 159.06C116.02 156.409 118.178 154.26 120.84 154.26Z"/>
<path d="M120.84 115.86C123.502 115.86 125.66 118.009 125.66 120.66C125.66 123.311 123.502 125.46 120.84 125.46C118.178 125.46 116.02 123.311 116.02 120.66C116.02 118.009 118.178 115.86 120.84 115.86Z"/>
<path d="M120.84 77.4601C123.502 77.4601 125.66 79.6092 125.66 82.2602C125.66 84.9111 123.502 87.0602 120.84 87.0602C118.178 87.0602 116.02 84.9111 116.02 82.2602C116.02 79.6092 118.178 77.4601 120.84 77.4601Z"/>
<path d="M120.84 39.0602C123.502 39.0602 125.66 41.2092 125.66 43.8602C125.66 46.5111 123.502 48.6602 120.84 48.6602C118.178 48.6602 116.02 46.5111 116.02 43.8602C116.02 41.2092 118.178 39.0602 120.84 39.0602Z"/>
<path d="M120.84 0.660156C123.502 0.660156 125.66 2.80918 125.66 5.46014C125.66 8.11111 123.502 10.2601 120.84 10.2601C118.178 10.2601 116.02 8.11111 116.02 5.46014C116.02 2.80918 118.178 0.660156 120.84 0.660156Z"/>
<path d="M120.84 154.26C123.502 154.26 125.66 156.409 125.66 159.06C125.66 161.711 123.502 163.86 120.84 163.86C118.178 163.86 116.02 161.711 116.02 159.06C116.02 156.409 118.178 154.26 120.84 154.26Z"/>
<path d="M120.84 115.86C123.502 115.86 125.66 118.009 125.66 120.66C125.66 123.311 123.502 125.46 120.84 125.46C118.178 125.46 116.02 123.311 116.02 120.66C116.02 118.009 118.178 115.86 120.84 115.86Z"/>
<path d="M120.84 77.4601C123.502 77.4601 125.66 79.6092 125.66 82.2602C125.66 84.9111 123.502 87.0602 120.84 87.0602C118.178 87.0602 116.02 84.9111 116.02 82.2602C116.02 79.6092 118.178 77.4601 120.84 77.4601Z"/>
<path d="M120.84 39.0602C123.502 39.0602 125.66 41.2092 125.66 43.8602C125.66 46.5111 123.502 48.6602 120.84 48.6602C118.178 48.6602 116.02 46.5111 116.02 43.8602C116.02 41.2092 118.178 39.0602 120.84 39.0602Z"/>
<path d="M120.84 0.660156C123.502 0.660156 125.66 2.80918 125.66 5.46014C125.66 8.11111 123.502 10.2601 120.84 10.2601C118.178 10.2601 116.02 8.11111 116.02 5.46014C116.02 2.80918 118.178 0.660156 120.84 0.660156Z"/>
<path d="M120.84 154.26C123.502 154.26 125.66 156.409 125.66 159.06C125.66 161.711 123.502 163.86 120.84 163.86C118.178 163.86 116.02 161.711 116.02 159.06C116.02 156.409 118.178 154.26 120.84 154.26Z"/>
<path d="M120.84 115.86C123.502 115.86 125.66 118.009 125.66 120.66C125.66 123.311 123.502 125.46 120.84 125.46C118.178 125.46 116.02 123.311 116.02 120.66C116.02 118.009 118.178 115.86 120.84 115.86Z"/>
<path d="M120.84 77.4601C123.502 77.4601 125.66 79.6092 125.66 82.2602C125.66 84.9111 123.502 87.0602 120.84 87.0602C118.178 87.0602 116.02 84.9111 116.02 82.2602C116.02 79.6092 118.178 77.4601 120.84 77.4601Z"/>
<path d="M120.84 39.0602C123.502 39.0602 125.66 41.2092 125.66 43.8602C125.66 46.5111 123.502 48.6602 120.84 48.6602C118.178 48.6602 116.02 46.5111 116.02 43.8602C116.02 41.2092 118.178 39.0602 120.84 39.0602Z"/>
<path d="M120.84 0.660156C123.502 0.660156 125.66 2.80918 125.66 5.46014C125.66 8.11111 123.502 10.2601 120.84 10.2601C118.178 10.2601 116.02 8.11111 116.02 5.46014C116.02 2.80918 118.178 0.660156 120.84 0.660156Z"/>
<path d="M158.84 154.26C161.502 154.26 163.66 156.409 163.66 159.06C163.66 161.711 161.502 163.86 158.84 163.86C156.178 163.86 154.02 161.711 154.02 159.06C154.02 156.409 156.178 154.26 158.84 154.26Z"/>
<path d="M158.84 115.86C161.502 115.86 163.66 118.009 163.66 120.66C163.66 123.311 161.502 125.46 158.84 125.46C156.178 125.46 154.02 123.311 154.02 120.66C154.02 118.009 156.178 115.86 158.84 115.86Z"/>
<path d="M158.84 77.4601C161.502 77.4601 163.66 79.6092 163.66 82.2602C163.66 84.9111 161.502 87.0602 158.84 87.0602C156.178 87.0602 154.02 84.9111 154.02 82.2602C154.02 79.6092 156.178 77.4601 158.84 77.4601Z"/>
<path d="M158.84 39.0602C161.502 39.0602 163.66 41.2092 163.66 43.8602C163.66 46.5111 161.502 48.6602 158.84 48.6602C156.178 48.6602 154.02 46.5111 154.02 43.8602C154.02 41.2092 156.178 39.0602 158.84 39.0602Z"/>
<path d="M158.84 0.660156C161.502 0.660156 163.66 2.80918 163.66 5.46014C163.66 8.11111 161.502 10.2601 158.84 10.2601C156.178 10.2601 154.02 8.11111 154.02 5.46014C154.02 2.80918 156.178 0.660156 158.84 0.660156Z"/>
</mask>
<path d="M5.15984 154.26C7.82186 154.26 9.97984 156.409 9.97984 159.06C9.97984 161.711 7.82186 163.86 5.15984 163.86C2.49783 163.86 0.339844 161.711 0.339844 159.06C0.339844 156.409 2.49783 154.26 5.15984 154.26Z" stroke="#212121" stroke-width="2" mask="url(#path-1-inside-1_255_2271)"/>
<path d="M5.15984 115.86C7.82186 115.86 9.97984 118.009 9.97984 120.66C9.97984 123.311 7.82186 125.46 5.15984 125.46C2.49783 125.46 0.339844 123.311 0.339844 120.66C0.339844 118.009 2.49783 115.86 5.15984 115.86Z" stroke="#212121" stroke-width="2" mask="url(#path-1-inside-1_255_2271)"/>
<path d="M5.15984 77.4601C7.82186 77.4601 9.97984 79.6092 9.97984 82.2602C9.97984 84.9111 7.82186 87.0602 5.15984 87.0602C2.49783 87.0602 0.339844 84.9111 0.339844 82.2602C0.339844 79.6092 2.49783 77.4601 5.15984 77.4601Z" stroke="#212121" stroke-width="2" mask="url(#path-1-inside-1_255_2271)"/>
<path d="M5.15984 39.0602C7.82186 39.0602 9.97984 41.2092 9.97984 43.8602C9.97984 46.5111 7.82186 48.6602 5.15984 48.6602C2.49783 48.6602 0.339844 46.5111 0.339844 43.8602C0.339844 41.2092 2.49783 39.0602 5.15984 39.0602Z" stroke="#212121" stroke-width="2" mask="url(#path-1-inside-1_255_2271)"/>
<path d="M5.15984 0.660156C7.82186 0.660156 9.97984 2.80918 9.97984 5.46014C9.97984 8.11111 7.82186 10.2601 5.15984 10.2601C2.49783 10.2601 0.339844 8.11111 0.339844 5.46014C0.339844 2.80918 2.49783 0.660156 5.15984 0.660156Z" stroke="#212121" stroke-width="2" mask="url(#path-1-inside-1_255_2271)"/>
<path d="M43.7198 154.26C46.3819 154.26 48.5398 156.409 48.5398 159.06C48.5398 161.711 46.3819 163.86 43.7198 163.86C41.0578 163.86 38.8998 161.711 38.8998 159.06C38.8998 156.409 41.0578 154.26 43.7198 154.26Z" stroke="#212121" stroke-width="2" mask="url(#path-1-inside-1_255_2271)"/>
<path d="M43.7198 115.86C46.3819 115.86 48.5398 118.009 48.5398 120.66C48.5398 123.311 46.3819 125.46 43.7198 125.46C41.0578 125.46 38.8998 123.311 38.8998 120.66C38.8998 118.009 41.0578 115.86 43.7198 115.86Z" stroke="#212121" stroke-width="2" mask="url(#path-1-inside-1_255_2271)"/>
<path d="M43.7198 77.4601C46.3819 77.4601 48.5398 79.6092 48.5398 82.2602C48.5398 84.9111 46.3819 87.0602 43.7198 87.0602C41.0578 87.0602 38.8998 84.9111 38.8998 82.2602C38.8998 79.6092 41.0578 77.4601 43.7198 77.4601Z" stroke="#212121" stroke-width="2" mask="url(#path-1-inside-1_255_2271)"/>
<path d="M43.7198 39.0602C46.3819 39.0602 48.5398 41.2092 48.5398 43.8602C48.5398 46.5111 46.3819 48.6602 43.7198 48.6602C41.0578 48.6602 38.8998 46.5111 38.8998 43.8602C38.8998 41.2092 41.0578 39.0602 43.7198 39.0602Z" stroke="#212121" stroke-width="2" mask="url(#path-1-inside-1_255_2271)"/>
<path d="M43.7198 0.660156C46.3819 0.660156 48.5398 2.80918 48.5398 5.46014C48.5398 8.11111 46.3819 10.2601 43.7198 10.2601C41.0578 10.2601 38.8998 8.11111 38.8998 5.46014C38.8998 2.80918 41.0578 0.660156 43.7198 0.660156Z" stroke="#212121" stroke-width="2" mask="url(#path-1-inside-1_255_2271)"/>
<path d="M82.2798 154.26C84.9418 154.26 87.0998 156.409 87.0998 159.06C87.0998 161.711 84.9418 163.86 82.2798 163.86C79.6178 163.86 77.4598 161.711 77.4598 159.06C77.4598 156.409 79.6178 154.26 82.2798 154.26Z" stroke="#212121" stroke-width="2" mask="url(#path-1-inside-1_255_2271)"/>
<path d="M82.2798 115.86C84.9418 115.86 87.0998 118.009 87.0998 120.66C87.0998 123.311 84.9418 125.46 82.2798 125.46C79.6178 125.46 77.4598 123.311 77.4598 120.66C77.4598 118.009 79.6178 115.86 82.2798 115.86Z" stroke="#212121" stroke-width="2" mask="url(#path-1-inside-1_255_2271)"/>
<path d="M82.2798 77.4601C84.9418 77.4601 87.0998 79.6092 87.0998 82.2602C87.0998 84.9111 84.9418 87.0602 82.2798 87.0602C79.6178 87.0602 77.4598 84.9111 77.4598 82.2602C77.4598 79.6092 79.6178 77.4601 82.2798 77.4601Z" stroke="#212121" stroke-width="2" mask="url(#path-1-inside-1_255_2271)"/>
<path d="M82.2798 39.0602C84.9418 39.0602 87.0998 41.2092 87.0998 43.8602C87.0998 46.5111 84.9418 48.6602 82.2798 48.6602C79.6178 48.6602 77.4598 46.5111 77.4598 43.8602C77.4598 41.2092 79.6178 39.0602 82.2798 39.0602Z" stroke="#212121" stroke-width="2" mask="url(#path-1-inside-1_255_2271)"/>
<path d="M82.2798 0.660156C84.9418 0.660156 87.0998 2.80918 87.0998 5.46014C87.0998 8.11111 84.9418 10.2601 82.2798 10.2601C79.6178 10.2601 77.4598 8.11111 77.4598 5.46014C77.4598 2.80918 79.6178 0.660156 82.2798 0.660156Z" stroke="#212121" stroke-width="2" mask="url(#path-1-inside-1_255_2271)"/>
<path d="M120.84 154.26C123.502 154.26 125.66 156.409 125.66 159.06C125.66 161.711 123.502 163.86 120.84 163.86C118.178 163.86 116.02 161.711 116.02 159.06C116.02 156.409 118.178 154.26 120.84 154.26Z" stroke="#212121" stroke-width="2" mask="url(#path-1-inside-1_255_2271)"/>
<path d="M120.84 115.86C123.502 115.86 125.66 118.009 125.66 120.66C125.66 123.311 123.502 125.46 120.84 125.46C118.178 125.46 116.02 123.311 116.02 120.66C116.02 118.009 118.178 115.86 120.84 115.86Z" stroke="#212121" stroke-width="2" mask="url(#path-1-inside-1_255_2271)"/>
<path d="M120.84 77.4601C123.502 77.4601 125.66 79.6092 125.66 82.2602C125.66 84.9111 123.502 87.0602 120.84 87.0602C118.178 87.0602 116.02 84.9111 116.02 82.2602C116.02 79.6092 118.178 77.4601 120.84 77.4601Z" stroke="#212121" stroke-width="2" mask="url(#path-1-inside-1_255_2271)"/>
<path d="M120.84 39.0602C123.502 39.0602 125.66 41.2092 125.66 43.8602C125.66 46.5111 123.502 48.6602 120.84 48.6602C118.178 48.6602 116.02 46.5111 116.02 43.8602C116.02 41.2092 118.178 39.0602 120.84 39.0602Z" stroke="#212121" stroke-width="2" mask="url(#path-1-inside-1_255_2271)"/>
<path d="M120.84 0.660156C123.502 0.660156 125.66 2.80918 125.66 5.46014C125.66 8.11111 123.502 10.2601 120.84 10.2601C118.178 10.2601 116.02 8.11111 116.02 5.46014C116.02 2.80918 118.178 0.660156 120.84 0.660156Z" stroke="#212121" stroke-width="2" mask="url(#path-1-inside-1_255_2271)"/>
<path d="M120.84 154.26C123.502 154.26 125.66 156.409 125.66 159.06C125.66 161.711 123.502 163.86 120.84 163.86C118.178 163.86 116.02 161.711 116.02 159.06C116.02 156.409 118.178 154.26 120.84 154.26Z" stroke="#212121" stroke-width="2" mask="url(#path-1-inside-1_255_2271)"/>
<path d="M120.84 115.86C123.502 115.86 125.66 118.009 125.66 120.66C125.66 123.311 123.502 125.46 120.84 125.46C118.178 125.46 116.02 123.311 116.02 120.66C116.02 118.009 118.178 115.86 120.84 115.86Z" stroke="#212121" stroke-width="2" mask="url(#path-1-inside-1_255_2271)"/>
<path d="M120.84 77.4601C123.502 77.4601 125.66 79.6092 125.66 82.2602C125.66 84.9111 123.502 87.0602 120.84 87.0602C118.178 87.0602 116.02 84.9111 116.02 82.2602C116.02 79.6092 118.178 77.4601 120.84 77.4601Z" stroke="#212121" stroke-width="2" mask="url(#path-1-inside-1_255_2271)"/>
<path d="M120.84 39.0602C123.502 39.0602 125.66 41.2092 125.66 43.8602C125.66 46.5111 123.502 48.6602 120.84 48.6602C118.178 48.6602 116.02 46.5111 116.02 43.8602C116.02 41.2092 118.178 39.0602 120.84 39.0602Z" stroke="#212121" stroke-width="2" mask="url(#path-1-inside-1_255_2271)"/>
<path d="M120.84 0.660156C123.502 0.660156 125.66 2.80918 125.66 5.46014C125.66 8.11111 123.502 10.2601 120.84 10.2601C118.178 10.2601 116.02 8.11111 116.02 5.46014C116.02 2.80918 118.178 0.660156 120.84 0.660156Z" stroke="#212121" stroke-width="2" mask="url(#path-1-inside-1_255_2271)"/>
<path d="M120.84 154.26C123.502 154.26 125.66 156.409 125.66 159.06C125.66 161.711 123.502 163.86 120.84 163.86C118.178 163.86 116.02 161.711 116.02 159.06C116.02 156.409 118.178 154.26 120.84 154.26Z" stroke="#212121" stroke-width="2" mask="url(#path-1-inside-1_255_2271)"/>
<path d="M120.84 115.86C123.502 115.86 125.66 118.009 125.66 120.66C125.66 123.311 123.502 125.46 120.84 125.46C118.178 125.46 116.02 123.311 116.02 120.66C116.02 118.009 118.178 115.86 120.84 115.86Z" stroke="#212121" stroke-width="2" mask="url(#path-1-inside-1_255_2271)"/>
<path d="M120.84 77.4601C123.502 77.4601 125.66 79.6092 125.66 82.2602C125.66 84.9111 123.502 87.0602 120.84 87.0602C118.178 87.0602 116.02 84.9111 116.02 82.2602C116.02 79.6092 118.178 77.4601 120.84 77.4601Z" stroke="#212121" stroke-width="2" mask="url(#path-1-inside-1_255_2271)"/>
<path d="M120.84 39.0602C123.502 39.0602 125.66 41.2092 125.66 43.8602C125.66 46.5111 123.502 48.6602 120.84 48.6602C118.178 48.6602 116.02 46.5111 116.02 43.8602C116.02 41.2092 118.178 39.0602 120.84 39.0602Z" stroke="#212121" stroke-width="2" mask="url(#path-1-inside-1_255_2271)"/>
<path d="M120.84 0.660156C123.502 0.660156 125.66 2.80918 125.66 5.46014C125.66 8.11111 123.502 10.2601 120.84 10.2601C118.178 10.2601 116.02 8.11111 116.02 5.46014C116.02 2.80918 118.178 0.660156 120.84 0.660156Z" stroke="#212121" stroke-width="2" mask="url(#path-1-inside-1_255_2271)"/>
<path d="M158.84 154.26C161.502 154.26 163.66 156.409 163.66 159.06C163.66 161.711 161.502 163.86 158.84 163.86C156.178 163.86 154.02 161.711 154.02 159.06C154.02 156.409 156.178 154.26 158.84 154.26Z" stroke="#212121" stroke-width="2" mask="url(#path-1-inside-1_255_2271)"/>
<path d="M158.84 115.86C161.502 115.86 163.66 118.009 163.66 120.66C163.66 123.311 161.502 125.46 158.84 125.46C156.178 125.46 154.02 123.311 154.02 120.66C154.02 118.009 156.178 115.86 158.84 115.86Z" stroke="#212121" stroke-width="2" mask="url(#path-1-inside-1_255_2271)"/>
<path d="M158.84 77.4601C161.502 77.4601 163.66 79.6092 163.66 82.2602C163.66 84.9111 161.502 87.0602 158.84 87.0602C156.178 87.0602 154.02 84.9111 154.02 82.2602C154.02 79.6092 156.178 77.4601 158.84 77.4601Z" stroke="#212121" stroke-width="2" mask="url(#path-1-inside-1_255_2271)"/>
<path d="M158.84 39.0602C161.502 39.0602 163.66 41.2092 163.66 43.8602C163.66 46.5111 161.502 48.6602 158.84 48.6602C156.178 48.6602 154.02 46.5111 154.02 43.8602C154.02 41.2092 156.178 39.0602 158.84 39.0602Z" stroke="#212121" stroke-width="2" mask="url(#path-1-inside-1_255_2271)"/>
<path d="M158.84 0.660156C161.502 0.660156 163.66 2.80918 163.66 5.46014C163.66 8.11111 161.502 10.2601 158.84 10.2601C156.178 10.2601 154.02 8.11111 154.02 5.46014C154.02 2.80918 156.178 0.660156 158.84 0.660156Z" stroke="#212121" stroke-width="2" mask="url(#path-1-inside-1_255_2271)"/>
</svg>
