<svg width="201" height="200" viewBox="0 0 201 200" fill="none" xmlns="http://www.w3.org/2000/svg">
<path d="M5.5 2.5C5.5 3.88071 4.38071 5 3 5C1.61929 5 0.5 3.88071 0.5 2.5C0.5 1.11929 1.61929 0 3 0C4.38071 0 5.5 1.11929 5.5 2.5Z" fill="white" fill-opacity="0.1"/>
<path d="M20.5 2.5C20.5 3.88071 19.3807 5 18 5C16.6193 5 15.5 3.88071 15.5 2.5C15.5 1.11929 16.6193 0 18 0C19.3807 0 20.5 1.11929 20.5 2.5Z" fill="white" fill-opacity="0.1"/>
<path d="M35.5 2.5C35.5 3.88071 34.3807 5 33 5C31.6193 5 30.5 3.88071 30.5 2.5C30.5 1.11929 31.6193 0 33 0C34.3807 0 35.5 1.11929 35.5 2.5Z" fill="white" fill-opacity="0.1"/>
<path d="M50.5 2.5C50.5 3.88071 49.3807 5 48 5C46.6193 5 45.5 3.88071 45.5 2.5C45.5 1.11929 46.6193 0 48 0C49.3807 0 50.5 1.11929 50.5 2.5Z" fill="white" fill-opacity="0.1"/>
<path d="M65.5 2.5C65.5 3.88071 64.3807 5 63 5C61.6193 5 60.5 3.88071 60.5 2.5C60.5 1.11929 61.6193 0 63 0C64.3807 0 65.5 1.11929 65.5 2.5Z" fill="white" fill-opacity="0.1"/>
<path d="M80.5 2.5C80.5 3.88071 79.3807 5 78 5C76.6193 5 75.5 3.88071 75.5 2.5C75.5 1.11929 76.6193 0 78 0C79.3807 0 80.5 1.11929 80.5 2.5Z" fill="white" fill-opacity="0.1"/>
<path d="M95.5 2.5C95.5 3.88071 94.3807 5 93 5C91.6193 5 90.5 3.88071 90.5 2.5C90.5 1.11929 91.6193 0 93 0C94.3807 0 95.5 1.11929 95.5 2.5Z" fill="white" fill-opacity="0.1"/>
<path d="M110.5 2.5C110.5 3.88071 109.381 5 108 5C106.619 5 105.5 3.88071 105.5 2.5C105.5 1.11929 106.619 0 108 0C109.381 0 110.5 1.11929 110.5 2.5Z" fill="white" fill-opacity="0.1"/>
<path d="M125.5 2.5C125.5 3.88071 124.381 5 123 5C121.619 5 120.5 3.88071 120.5 2.5C120.5 1.11929 121.619 0 123 0C124.381 0 125.5 1.11929 125.5 2.5Z" fill="white" fill-opacity="0.1"/>
<path d="M140.5 2.5C140.5 3.88071 139.381 5 138 5C136.619 5 135.5 3.88071 135.5 2.5C135.5 1.11929 136.619 0 138 0C139.381 0 140.5 1.11929 140.5 2.5Z" fill="white" fill-opacity="0.1"/>
<path d="M155.5 2.5C155.5 3.88071 154.381 5 153 5C151.619 5 150.5 3.88071 150.5 2.5C150.5 1.11929 151.619 0 153 0C154.381 0 155.5 1.11929 155.5 2.5Z" fill="white" fill-opacity="0.1"/>
<path d="M170.5 2.5C170.5 3.88071 169.381 5 168 5C166.619 5 165.5 3.88071 165.5 2.5C165.5 1.11929 166.619 0 168 0C169.381 0 170.5 1.11929 170.5 2.5Z" fill="white" fill-opacity="0.1"/>
<path d="M185.5 2.5C185.5 3.88071 184.381 5 183 5C181.619 5 180.5 3.88071 180.5 2.5C180.5 1.11929 181.619 0 183 0C184.381 0 185.5 1.11929 185.5 2.5Z" fill="white" fill-opacity="0.1"/>
<path d="M200.5 2.5C200.5 3.88071 199.381 5 198 5C196.619 5 195.5 3.88071 195.5 2.5C195.5 1.11929 196.619 0 198 0C199.381 0 200.5 1.11929 200.5 2.5Z" fill="white" fill-opacity="0.1"/>
<path d="M5.5 17.5C5.5 18.8807 4.38071 20 3 20C1.61929 20 0.5 18.8807 0.5 17.5C0.5 16.1193 1.61929 15 3 15C4.38071 15 5.5 16.1193 5.5 17.5Z" fill="white" fill-opacity="0.1"/>
<path d="M20.5 17.5C20.5 18.8807 19.3807 20 18 20C16.6193 20 15.5 18.8807 15.5 17.5C15.5 16.1193 16.6193 15 18 15C19.3807 15 20.5 16.1193 20.5 17.5Z" fill="white" fill-opacity="0.1"/>
<path d="M35.5 17.5C35.5 18.8807 34.3807 20 33 20C31.6193 20 30.5 18.8807 30.5 17.5C30.5 16.1193 31.6193 15 33 15C34.3807 15 35.5 16.1193 35.5 17.5Z" fill="white" fill-opacity="0.1"/>
<path d="M50.5 17.5C50.5 18.8807 49.3807 20 48 20C46.6193 20 45.5 18.8807 45.5 17.5C45.5 16.1193 46.6193 15 48 15C49.3807 15 50.5 16.1193 50.5 17.5Z" fill="white" fill-opacity="0.1"/>
<path d="M65.5 17.5C65.5 18.8807 64.3807 20 63 20C61.6193 20 60.5 18.8807 60.5 17.5C60.5 16.1193 61.6193 15 63 15C64.3807 15 65.5 16.1193 65.5 17.5Z" fill="white" fill-opacity="0.1"/>
<path d="M80.5 17.5C80.5 18.8807 79.3807 20 78 20C76.6193 20 75.5 18.8807 75.5 17.5C75.5 16.1193 76.6193 15 78 15C79.3807 15 80.5 16.1193 80.5 17.5Z" fill="white" fill-opacity="0.1"/>
<path d="M95.5 17.5C95.5 18.8807 94.3807 20 93 20C91.6193 20 90.5 18.8807 90.5 17.5C90.5 16.1193 91.6193 15 93 15C94.3807 15 95.5 16.1193 95.5 17.5Z" fill="white" fill-opacity="0.1"/>
<path d="M110.5 17.5C110.5 18.8807 109.381 20 108 20C106.619 20 105.5 18.8807 105.5 17.5C105.5 16.1193 106.619 15 108 15C109.381 15 110.5 16.1193 110.5 17.5Z" fill="white" fill-opacity="0.1"/>
<path d="M125.5 17.5C125.5 18.8807 124.381 20 123 20C121.619 20 120.5 18.8807 120.5 17.5C120.5 16.1193 121.619 15 123 15C124.381 15 125.5 16.1193 125.5 17.5Z" fill="white" fill-opacity="0.1"/>
<path d="M140.5 17.5C140.5 18.8807 139.381 20 138 20C136.619 20 135.5 18.8807 135.5 17.5C135.5 16.1193 136.619 15 138 15C139.381 15 140.5 16.1193 140.5 17.5Z" fill="white" fill-opacity="0.1"/>
<path d="M155.5 17.5C155.5 18.8807 154.381 20 153 20C151.619 20 150.5 18.8807 150.5 17.5C150.5 16.1193 151.619 15 153 15C154.381 15 155.5 16.1193 155.5 17.5Z" fill="white" fill-opacity="0.1"/>
<path d="M170.5 17.5C170.5 18.8807 169.381 20 168 20C166.619 20 165.5 18.8807 165.5 17.5C165.5 16.1193 166.619 15 168 15C169.381 15 170.5 16.1193 170.5 17.5Z" fill="white" fill-opacity="0.1"/>
<path d="M185.5 17.5C185.5 18.8807 184.381 20 183 20C181.619 20 180.5 18.8807 180.5 17.5C180.5 16.1193 181.619 15 183 15C184.381 15 185.5 16.1193 185.5 17.5Z" fill="white" fill-opacity="0.1"/>
<path d="M200.5 17.5C200.5 18.8807 199.381 20 198 20C196.619 20 195.5 18.8807 195.5 17.5C195.5 16.1193 196.619 15 198 15C199.381 15 200.5 16.1193 200.5 17.5Z" fill="white" fill-opacity="0.1"/>
<path d="M5.5 32.5C5.5 33.8807 4.38071 35 3 35C1.61929 35 0.5 33.8807 0.5 32.5C0.5 31.1193 1.61929 30 3 30C4.38071 30 5.5 31.1193 5.5 32.5Z" fill="white" fill-opacity="0.1"/>
<path d="M20.5 32.5C20.5 33.8807 19.3807 35 18 35C16.6193 35 15.5 33.8807 15.5 32.5C15.5 31.1193 16.6193 30 18 30C19.3807 30 20.5 31.1193 20.5 32.5Z" fill="white" fill-opacity="0.1"/>
<path d="M35.5 32.5C35.5 33.8807 34.3807 35 33 35C31.6193 35 30.5 33.8807 30.5 32.5C30.5 31.1193 31.6193 30 33 30C34.3807 30 35.5 31.1193 35.5 32.5Z" fill="white" fill-opacity="0.1"/>
<path d="M50.5 32.5C50.5 33.8807 49.3807 35 48 35C46.6193 35 45.5 33.8807 45.5 32.5C45.5 31.1193 46.6193 30 48 30C49.3807 30 50.5 31.1193 50.5 32.5Z" fill="white" fill-opacity="0.1"/>
<path d="M65.5 32.5C65.5 33.8807 64.3807 35 63 35C61.6193 35 60.5 33.8807 60.5 32.5C60.5 31.1193 61.6193 30 63 30C64.3807 30 65.5 31.1193 65.5 32.5Z" fill="white" fill-opacity="0.1"/>
<path d="M80.5 32.5C80.5 33.8807 79.3807 35 78 35C76.6193 35 75.5 33.8807 75.5 32.5C75.5 31.1193 76.6193 30 78 30C79.3807 30 80.5 31.1193 80.5 32.5Z" fill="white" fill-opacity="0.1"/>
<path d="M95.5 32.5C95.5 33.8807 94.3807 35 93 35C91.6193 35 90.5 33.8807 90.5 32.5C90.5 31.1193 91.6193 30 93 30C94.3807 30 95.5 31.1193 95.5 32.5Z" fill="white" fill-opacity="0.1"/>
<path d="M110.5 32.5C110.5 33.8807 109.381 35 108 35C106.619 35 105.5 33.8807 105.5 32.5C105.5 31.1193 106.619 30 108 30C109.381 30 110.5 31.1193 110.5 32.5Z" fill="white" fill-opacity="0.1"/>
<path d="M125.5 32.5C125.5 33.8807 124.381 35 123 35C121.619 35 120.5 33.8807 120.5 32.5C120.5 31.1193 121.619 30 123 30C124.381 30 125.5 31.1193 125.5 32.5Z" fill="white" fill-opacity="0.1"/>
<path d="M140.5 32.5C140.5 33.8807 139.381 35 138 35C136.619 35 135.5 33.8807 135.5 32.5C135.5 31.1193 136.619 30 138 30C139.381 30 140.5 31.1193 140.5 32.5Z" fill="white" fill-opacity="0.1"/>
<path d="M155.5 32.5C155.5 33.8807 154.381 35 153 35C151.619 35 150.5 33.8807 150.5 32.5C150.5 31.1193 151.619 30 153 30C154.381 30 155.5 31.1193 155.5 32.5Z" fill="white" fill-opacity="0.1"/>
<path d="M170.5 32.5C170.5 33.8807 169.381 35 168 35C166.619 35 165.5 33.8807 165.5 32.5C165.5 31.1193 166.619 30 168 30C169.381 30 170.5 31.1193 170.5 32.5Z" fill="white" fill-opacity="0.1"/>
<path d="M185.5 32.5C185.5 33.8807 184.381 35 183 35C181.619 35 180.5 33.8807 180.5 32.5C180.5 31.1193 181.619 30 183 30C184.381 30 185.5 31.1193 185.5 32.5Z" fill="white" fill-opacity="0.1"/>
<path d="M200.5 32.5C200.5 33.8807 199.381 35 198 35C196.619 35 195.5 33.8807 195.5 32.5C195.5 31.1193 196.619 30 198 30C199.381 30 200.5 31.1193 200.5 32.5Z" fill="white" fill-opacity="0.1"/>
<path d="M5.5 47.5C5.5 48.8807 4.38071 50 3 50C1.61929 50 0.5 48.8807 0.5 47.5C0.5 46.1193 1.61929 45 3 45C4.38071 45 5.5 46.1193 5.5 47.5Z" fill="white" fill-opacity="0.1"/>
<path d="M20.5 47.5C20.5 48.8807 19.3807 50 18 50C16.6193 50 15.5 48.8807 15.5 47.5C15.5 46.1193 16.6193 45 18 45C19.3807 45 20.5 46.1193 20.5 47.5Z" fill="white" fill-opacity="0.1"/>
<path d="M35.5 47.5C35.5 48.8807 34.3807 50 33 50C31.6193 50 30.5 48.8807 30.5 47.5C30.5 46.1193 31.6193 45 33 45C34.3807 45 35.5 46.1193 35.5 47.5Z" fill="white" fill-opacity="0.1"/>
<path d="M50.5 47.5C50.5 48.8807 49.3807 50 48 50C46.6193 50 45.5 48.8807 45.5 47.5C45.5 46.1193 46.6193 45 48 45C49.3807 45 50.5 46.1193 50.5 47.5Z" fill="white" fill-opacity="0.1"/>
<path d="M65.5 47.5C65.5 48.8807 64.3807 50 63 50C61.6193 50 60.5 48.8807 60.5 47.5C60.5 46.1193 61.6193 45 63 45C64.3807 45 65.5 46.1193 65.5 47.5Z" fill="white" fill-opacity="0.1"/>
<path d="M80.5 47.5C80.5 48.8807 79.3807 50 78 50C76.6193 50 75.5 48.8807 75.5 47.5C75.5 46.1193 76.6193 45 78 45C79.3807 45 80.5 46.1193 80.5 47.5Z" fill="white" fill-opacity="0.1"/>
<path d="M95.5 47.5C95.5 48.8807 94.3807 50 93 50C91.6193 50 90.5 48.8807 90.5 47.5C90.5 46.1193 91.6193 45 93 45C94.3807 45 95.5 46.1193 95.5 47.5Z" fill="white" fill-opacity="0.1"/>
<path d="M110.5 47.5C110.5 48.8807 109.381 50 108 50C106.619 50 105.5 48.8807 105.5 47.5C105.5 46.1193 106.619 45 108 45C109.381 45 110.5 46.1193 110.5 47.5Z" fill="white" fill-opacity="0.1"/>
<path d="M125.5 47.5C125.5 48.8807 124.381 50 123 50C121.619 50 120.5 48.8807 120.5 47.5C120.5 46.1193 121.619 45 123 45C124.381 45 125.5 46.1193 125.5 47.5Z" fill="white" fill-opacity="0.1"/>
<path d="M140.5 47.5C140.5 48.8807 139.381 50 138 50C136.619 50 135.5 48.8807 135.5 47.5C135.5 46.1193 136.619 45 138 45C139.381 45 140.5 46.1193 140.5 47.5Z" fill="white" fill-opacity="0.1"/>
<path d="M155.5 47.5C155.5 48.8807 154.381 50 153 50C151.619 50 150.5 48.8807 150.5 47.5C150.5 46.1193 151.619 45 153 45C154.381 45 155.5 46.1193 155.5 47.5Z" fill="white" fill-opacity="0.1"/>
<path d="M170.5 47.5C170.5 48.8807 169.381 50 168 50C166.619 50 165.5 48.8807 165.5 47.5C165.5 46.1193 166.619 45 168 45C169.381 45 170.5 46.1193 170.5 47.5Z" fill="white" fill-opacity="0.1"/>
<path d="M185.5 47.5C185.5 48.8807 184.381 50 183 50C181.619 50 180.5 48.8807 180.5 47.5C180.5 46.1193 181.619 45 183 45C184.381 45 185.5 46.1193 185.5 47.5Z" fill="white" fill-opacity="0.1"/>
<path d="M200.5 47.5C200.5 48.8807 199.381 50 198 50C196.619 50 195.5 48.8807 195.5 47.5C195.5 46.1193 196.619 45 198 45C199.381 45 200.5 46.1193 200.5 47.5Z" fill="white" fill-opacity="0.1"/>
<path d="M5.5 62.5C5.5 63.8807 4.38071 65 3 65C1.61929 65 0.5 63.8807 0.5 62.5C0.5 61.1193 1.61929 60 3 60C4.38071 60 5.5 61.1193 5.5 62.5Z" fill="white" fill-opacity="0.1"/>
<path d="M20.5 62.5C20.5 63.8807 19.3807 65 18 65C16.6193 65 15.5 63.8807 15.5 62.5C15.5 61.1193 16.6193 60 18 60C19.3807 60 20.5 61.1193 20.5 62.5Z" fill="white" fill-opacity="0.1"/>
<path d="M35.5 62.5C35.5 63.8807 34.3807 65 33 65C31.6193 65 30.5 63.8807 30.5 62.5C30.5 61.1193 31.6193 60 33 60C34.3807 60 35.5 61.1193 35.5 62.5Z" fill="white" fill-opacity="0.1"/>
<path d="M50.5 62.5C50.5 63.8807 49.3807 65 48 65C46.6193 65 45.5 63.8807 45.5 62.5C45.5 61.1193 46.6193 60 48 60C49.3807 60 50.5 61.1193 50.5 62.5Z" fill="white" fill-opacity="0.1"/>
<path d="M65.5 62.5C65.5 63.8807 64.3807 65 63 65C61.6193 65 60.5 63.8807 60.5 62.5C60.5 61.1193 61.6193 60 63 60C64.3807 60 65.5 61.1193 65.5 62.5Z" fill="white" fill-opacity="0.1"/>
<path d="M80.5 62.5C80.5 63.8807 79.3807 65 78 65C76.6193 65 75.5 63.8807 75.5 62.5C75.5 61.1193 76.6193 60 78 60C79.3807 60 80.5 61.1193 80.5 62.5Z" fill="white" fill-opacity="0.1"/>
<path d="M95.5 62.5C95.5 63.8807 94.3807 65 93 65C91.6193 65 90.5 63.8807 90.5 62.5C90.5 61.1193 91.6193 60 93 60C94.3807 60 95.5 61.1193 95.5 62.5Z" fill="white" fill-opacity="0.1"/>
<path d="M110.5 62.5C110.5 63.8807 109.381 65 108 65C106.619 65 105.5 63.8807 105.5 62.5C105.5 61.1193 106.619 60 108 60C109.381 60 110.5 61.1193 110.5 62.5Z" fill="white" fill-opacity="0.1"/>
<path d="M125.5 62.5C125.5 63.8807 124.381 65 123 65C121.619 65 120.5 63.8807 120.5 62.5C120.5 61.1193 121.619 60 123 60C124.381 60 125.5 61.1193 125.5 62.5Z" fill="white" fill-opacity="0.1"/>
<path d="M140.5 62.5C140.5 63.8807 139.381 65 138 65C136.619 65 135.5 63.8807 135.5 62.5C135.5 61.1193 136.619 60 138 60C139.381 60 140.5 61.1193 140.5 62.5Z" fill="white" fill-opacity="0.1"/>
<path d="M155.5 62.5C155.5 63.8807 154.381 65 153 65C151.619 65 150.5 63.8807 150.5 62.5C150.5 61.1193 151.619 60 153 60C154.381 60 155.5 61.1193 155.5 62.5Z" fill="white" fill-opacity="0.1"/>
<path d="M170.5 62.5C170.5 63.8807 169.381 65 168 65C166.619 65 165.5 63.8807 165.5 62.5C165.5 61.1193 166.619 60 168 60C169.381 60 170.5 61.1193 170.5 62.5Z" fill="white" fill-opacity="0.1"/>
<path d="M185.5 62.5C185.5 63.8807 184.381 65 183 65C181.619 65 180.5 63.8807 180.5 62.5C180.5 61.1193 181.619 60 183 60C184.381 60 185.5 61.1193 185.5 62.5Z" fill="white" fill-opacity="0.1"/>
<path d="M200.5 62.5C200.5 63.8807 199.381 65 198 65C196.619 65 195.5 63.8807 195.5 62.5C195.5 61.1193 196.619 60 198 60C199.381 60 200.5 61.1193 200.5 62.5Z" fill="white" fill-opacity="0.1"/>
<path d="M5.5 77.5C5.5 78.8807 4.38071 80 3 80C1.61929 80 0.5 78.8807 0.5 77.5C0.5 76.1193 1.61929 75 3 75C4.38071 75 5.5 76.1193 5.5 77.5Z" fill="white" fill-opacity="0.1"/>
<path d="M20.5 77.5C20.5 78.8807 19.3807 80 18 80C16.6193 80 15.5 78.8807 15.5 77.5C15.5 76.1193 16.6193 75 18 75C19.3807 75 20.5 76.1193 20.5 77.5Z" fill="white" fill-opacity="0.1"/>
<path d="M35.5 77.5C35.5 78.8807 34.3807 80 33 80C31.6193 80 30.5 78.8807 30.5 77.5C30.5 76.1193 31.6193 75 33 75C34.3807 75 35.5 76.1193 35.5 77.5Z" fill="white" fill-opacity="0.1"/>
<path d="M50.5 77.5C50.5 78.8807 49.3807 80 48 80C46.6193 80 45.5 78.8807 45.5 77.5C45.5 76.1193 46.6193 75 48 75C49.3807 75 50.5 76.1193 50.5 77.5Z" fill="white" fill-opacity="0.1"/>
<path d="M65.5 77.5C65.5 78.8807 64.3807 80 63 80C61.6193 80 60.5 78.8807 60.5 77.5C60.5 76.1193 61.6193 75 63 75C64.3807 75 65.5 76.1193 65.5 77.5Z" fill="white" fill-opacity="0.1"/>
<path d="M80.5 77.5C80.5 78.8807 79.3807 80 78 80C76.6193 80 75.5 78.8807 75.5 77.5C75.5 76.1193 76.6193 75 78 75C79.3807 75 80.5 76.1193 80.5 77.5Z" fill="white" fill-opacity="0.1"/>
<path d="M95.5 77.5C95.5 78.8807 94.3807 80 93 80C91.6193 80 90.5 78.8807 90.5 77.5C90.5 76.1193 91.6193 75 93 75C94.3807 75 95.5 76.1193 95.5 77.5Z" fill="white" fill-opacity="0.1"/>
<path d="M110.5 77.5C110.5 78.8807 109.381 80 108 80C106.619 80 105.5 78.8807 105.5 77.5C105.5 76.1193 106.619 75 108 75C109.381 75 110.5 76.1193 110.5 77.5Z" fill="white" fill-opacity="0.1"/>
<path d="M125.5 77.5C125.5 78.8807 124.381 80 123 80C121.619 80 120.5 78.8807 120.5 77.5C120.5 76.1193 121.619 75 123 75C124.381 75 125.5 76.1193 125.5 77.5Z" fill="white" fill-opacity="0.1"/>
<path d="M140.5 77.5C140.5 78.8807 139.381 80 138 80C136.619 80 135.5 78.8807 135.5 77.5C135.5 76.1193 136.619 75 138 75C139.381 75 140.5 76.1193 140.5 77.5Z" fill="white" fill-opacity="0.1"/>
<path d="M155.5 77.5C155.5 78.8807 154.381 80 153 80C151.619 80 150.5 78.8807 150.5 77.5C150.5 76.1193 151.619 75 153 75C154.381 75 155.5 76.1193 155.5 77.5Z" fill="white" fill-opacity="0.1"/>
<path d="M170.5 77.5C170.5 78.8807 169.381 80 168 80C166.619 80 165.5 78.8807 165.5 77.5C165.5 76.1193 166.619 75 168 75C169.381 75 170.5 76.1193 170.5 77.5Z" fill="white" fill-opacity="0.1"/>
<path d="M185.5 77.5C185.5 78.8807 184.381 80 183 80C181.619 80 180.5 78.8807 180.5 77.5C180.5 76.1193 181.619 75 183 75C184.381 75 185.5 76.1193 185.5 77.5Z" fill="white" fill-opacity="0.1"/>
<path d="M200.5 77.5C200.5 78.8807 199.381 80 198 80C196.619 80 195.5 78.8807 195.5 77.5C195.5 76.1193 196.619 75 198 75C199.381 75 200.5 76.1193 200.5 77.5Z" fill="white" fill-opacity="0.1"/>
<path d="M5.5 92.5C5.5 93.8807 4.38071 95 3 95C1.61929 95 0.5 93.8807 0.5 92.5C0.5 91.1193 1.61929 90 3 90C4.38071 90 5.5 91.1193 5.5 92.5Z" fill="white" fill-opacity="0.1"/>
<path d="M20.5 92.5C20.5 93.8807 19.3807 95 18 95C16.6193 95 15.5 93.8807 15.5 92.5C15.5 91.1193 16.6193 90 18 90C19.3807 90 20.5 91.1193 20.5 92.5Z" fill="white" fill-opacity="0.1"/>
<path d="M35.5 92.5C35.5 93.8807 34.3807 95 33 95C31.6193 95 30.5 93.8807 30.5 92.5C30.5 91.1193 31.6193 90 33 90C34.3807 90 35.5 91.1193 35.5 92.5Z" fill="white" fill-opacity="0.1"/>
<path d="M50.5 92.5C50.5 93.8807 49.3807 95 48 95C46.6193 95 45.5 93.8807 45.5 92.5C45.5 91.1193 46.6193 90 48 90C49.3807 90 50.5 91.1193 50.5 92.5Z" fill="white" fill-opacity="0.1"/>
<path d="M65.5 92.5C65.5 93.8807 64.3807 95 63 95C61.6193 95 60.5 93.8807 60.5 92.5C60.5 91.1193 61.6193 90 63 90C64.3807 90 65.5 91.1193 65.5 92.5Z" fill="white" fill-opacity="0.1"/>
<path d="M80.5 92.5C80.5 93.8807 79.3807 95 78 95C76.6193 95 75.5 93.8807 75.5 92.5C75.5 91.1193 76.6193 90 78 90C79.3807 90 80.5 91.1193 80.5 92.5Z" fill="white" fill-opacity="0.1"/>
<path d="M95.5 92.5C95.5 93.8807 94.3807 95 93 95C91.6193 95 90.5 93.8807 90.5 92.5C90.5 91.1193 91.6193 90 93 90C94.3807 90 95.5 91.1193 95.5 92.5Z" fill="white" fill-opacity="0.1"/>
<path d="M110.5 92.5C110.5 93.8807 109.381 95 108 95C106.619 95 105.5 93.8807 105.5 92.5C105.5 91.1193 106.619 90 108 90C109.381 90 110.5 91.1193 110.5 92.5Z" fill="white" fill-opacity="0.1"/>
<path d="M125.5 92.5C125.5 93.8807 124.381 95 123 95C121.619 95 120.5 93.8807 120.5 92.5C120.5 91.1193 121.619 90 123 90C124.381 90 125.5 91.1193 125.5 92.5Z" fill="white" fill-opacity="0.1"/>
<path d="M140.5 92.5C140.5 93.8807 139.381 95 138 95C136.619 95 135.5 93.8807 135.5 92.5C135.5 91.1193 136.619 90 138 90C139.381 90 140.5 91.1193 140.5 92.5Z" fill="white" fill-opacity="0.1"/>
<path d="M155.5 92.5C155.5 93.8807 154.381 95 153 95C151.619 95 150.5 93.8807 150.5 92.5C150.5 91.1193 151.619 90 153 90C154.381 90 155.5 91.1193 155.5 92.5Z" fill="white" fill-opacity="0.1"/>
<path d="M170.5 92.5C170.5 93.8807 169.381 95 168 95C166.619 95 165.5 93.8807 165.5 92.5C165.5 91.1193 166.619 90 168 90C169.381 90 170.5 91.1193 170.5 92.5Z" fill="white" fill-opacity="0.1"/>
<path d="M185.5 92.5C185.5 93.8807 184.381 95 183 95C181.619 95 180.5 93.8807 180.5 92.5C180.5 91.1193 181.619 90 183 90C184.381 90 185.5 91.1193 185.5 92.5Z" fill="white" fill-opacity="0.1"/>
<path d="M200.5 92.5C200.5 93.8807 199.381 95 198 95C196.619 95 195.5 93.8807 195.5 92.5C195.5 91.1193 196.619 90 198 90C199.381 90 200.5 91.1193 200.5 92.5Z" fill="white" fill-opacity="0.1"/>
<path d="M5.5 107.5C5.5 108.881 4.38071 110 3 110C1.61929 110 0.5 108.881 0.5 107.5C0.5 106.119 1.61929 105 3 105C4.38071 105 5.5 106.119 5.5 107.5Z" fill="white" fill-opacity="0.1"/>
<path d="M20.5 107.5C20.5 108.881 19.3807 110 18 110C16.6193 110 15.5 108.881 15.5 107.5C15.5 106.119 16.6193 105 18 105C19.3807 105 20.5 106.119 20.5 107.5Z" fill="white" fill-opacity="0.1"/>
<path d="M35.5 107.5C35.5 108.881 34.3807 110 33 110C31.6193 110 30.5 108.881 30.5 107.5C30.5 106.119 31.6193 105 33 105C34.3807 105 35.5 106.119 35.5 107.5Z" fill="white" fill-opacity="0.1"/>
<path d="M50.5 107.5C50.5 108.881 49.3807 110 48 110C46.6193 110 45.5 108.881 45.5 107.5C45.5 106.119 46.6193 105 48 105C49.3807 105 50.5 106.119 50.5 107.5Z" fill="white" fill-opacity="0.1"/>
<path d="M65.5 107.5C65.5 108.881 64.3807 110 63 110C61.6193 110 60.5 108.881 60.5 107.5C60.5 106.119 61.6193 105 63 105C64.3807 105 65.5 106.119 65.5 107.5Z" fill="white" fill-opacity="0.1"/>
<path d="M80.5 107.5C80.5 108.881 79.3807 110 78 110C76.6193 110 75.5 108.881 75.5 107.5C75.5 106.119 76.6193 105 78 105C79.3807 105 80.5 106.119 80.5 107.5Z" fill="white" fill-opacity="0.1"/>
<path d="M95.5 107.5C95.5 108.881 94.3807 110 93 110C91.6193 110 90.5 108.881 90.5 107.5C90.5 106.119 91.6193 105 93 105C94.3807 105 95.5 106.119 95.5 107.5Z" fill="white" fill-opacity="0.1"/>
<path d="M110.5 107.5C110.5 108.881 109.381 110 108 110C106.619 110 105.5 108.881 105.5 107.5C105.5 106.119 106.619 105 108 105C109.381 105 110.5 106.119 110.5 107.5Z" fill="white" fill-opacity="0.1"/>
<path d="M125.5 107.5C125.5 108.881 124.381 110 123 110C121.619 110 120.5 108.881 120.5 107.5C120.5 106.119 121.619 105 123 105C124.381 105 125.5 106.119 125.5 107.5Z" fill="white" fill-opacity="0.1"/>
<path d="M140.5 107.5C140.5 108.881 139.381 110 138 110C136.619 110 135.5 108.881 135.5 107.5C135.5 106.119 136.619 105 138 105C139.381 105 140.5 106.119 140.5 107.5Z" fill="white" fill-opacity="0.1"/>
<path d="M155.5 107.5C155.5 108.881 154.381 110 153 110C151.619 110 150.5 108.881 150.5 107.5C150.5 106.119 151.619 105 153 105C154.381 105 155.5 106.119 155.5 107.5Z" fill="white" fill-opacity="0.1"/>
<path d="M170.5 107.5C170.5 108.881 169.381 110 168 110C166.619 110 165.5 108.881 165.5 107.5C165.5 106.119 166.619 105 168 105C169.381 105 170.5 106.119 170.5 107.5Z" fill="white" fill-opacity="0.1"/>
<path d="M185.5 107.5C185.5 108.881 184.381 110 183 110C181.619 110 180.5 108.881 180.5 107.5C180.5 106.119 181.619 105 183 105C184.381 105 185.5 106.119 185.5 107.5Z" fill="white" fill-opacity="0.1"/>
<path d="M200.5 107.5C200.5 108.881 199.381 110 198 110C196.619 110 195.5 108.881 195.5 107.5C195.5 106.119 196.619 105 198 105C199.381 105 200.5 106.119 200.5 107.5Z" fill="white" fill-opacity="0.1"/>
<path d="M5.5 122.5C5.5 123.881 4.38071 125 3 125C1.61929 125 0.5 123.881 0.5 122.5C0.5 121.119 1.61929 120 3 120C4.38071 120 5.5 121.119 5.5 122.5Z" fill="white" fill-opacity="0.1"/>
<path d="M20.5 122.5C20.5 123.881 19.3807 125 18 125C16.6193 125 15.5 123.881 15.5 122.5C15.5 121.119 16.6193 120 18 120C19.3807 120 20.5 121.119 20.5 122.5Z" fill="white" fill-opacity="0.1"/>
<path d="M35.5 122.5C35.5 123.881 34.3807 125 33 125C31.6193 125 30.5 123.881 30.5 122.5C30.5 121.119 31.6193 120 33 120C34.3807 120 35.5 121.119 35.5 122.5Z" fill="white" fill-opacity="0.1"/>
<path d="M50.5 122.5C50.5 123.881 49.3807 125 48 125C46.6193 125 45.5 123.881 45.5 122.5C45.5 121.119 46.6193 120 48 120C49.3807 120 50.5 121.119 50.5 122.5Z" fill="white" fill-opacity="0.1"/>
<path d="M65.5 122.5C65.5 123.881 64.3807 125 63 125C61.6193 125 60.5 123.881 60.5 122.5C60.5 121.119 61.6193 120 63 120C64.3807 120 65.5 121.119 65.5 122.5Z" fill="white" fill-opacity="0.1"/>
<path d="M80.5 122.5C80.5 123.881 79.3807 125 78 125C76.6193 125 75.5 123.881 75.5 122.5C75.5 121.119 76.6193 120 78 120C79.3807 120 80.5 121.119 80.5 122.5Z" fill="white" fill-opacity="0.1"/>
<path d="M95.5 122.5C95.5 123.881 94.3807 125 93 125C91.6193 125 90.5 123.881 90.5 122.5C90.5 121.119 91.6193 120 93 120C94.3807 120 95.5 121.119 95.5 122.5Z" fill="white" fill-opacity="0.1"/>
<path d="M110.5 122.5C110.5 123.881 109.381 125 108 125C106.619 125 105.5 123.881 105.5 122.5C105.5 121.119 106.619 120 108 120C109.381 120 110.5 121.119 110.5 122.5Z" fill="white" fill-opacity="0.1"/>
<path d="M125.5 122.5C125.5 123.881 124.381 125 123 125C121.619 125 120.5 123.881 120.5 122.5C120.5 121.119 121.619 120 123 120C124.381 120 125.5 121.119 125.5 122.5Z" fill="white" fill-opacity="0.1"/>
<path d="M140.5 122.5C140.5 123.881 139.381 125 138 125C136.619 125 135.5 123.881 135.5 122.5C135.5 121.119 136.619 120 138 120C139.381 120 140.5 121.119 140.5 122.5Z" fill="white" fill-opacity="0.1"/>
<path d="M155.5 122.5C155.5 123.881 154.381 125 153 125C151.619 125 150.5 123.881 150.5 122.5C150.5 121.119 151.619 120 153 120C154.381 120 155.5 121.119 155.5 122.5Z" fill="white" fill-opacity="0.1"/>
<path d="M170.5 122.5C170.5 123.881 169.381 125 168 125C166.619 125 165.5 123.881 165.5 122.5C165.5 121.119 166.619 120 168 120C169.381 120 170.5 121.119 170.5 122.5Z" fill="white" fill-opacity="0.1"/>
<path d="M185.5 122.5C185.5 123.881 184.381 125 183 125C181.619 125 180.5 123.881 180.5 122.5C180.5 121.119 181.619 120 183 120C184.381 120 185.5 121.119 185.5 122.5Z" fill="white" fill-opacity="0.1"/>
<path d="M200.5 122.5C200.5 123.881 199.381 125 198 125C196.619 125 195.5 123.881 195.5 122.5C195.5 121.119 196.619 120 198 120C199.381 120 200.5 121.119 200.5 122.5Z" fill="white" fill-opacity="0.1"/>
<path d="M5.5 137.5C5.5 138.881 4.38071 140 3 140C1.61929 140 0.5 138.881 0.5 137.5C0.5 136.119 1.61929 135 3 135C4.38071 135 5.5 136.119 5.5 137.5Z" fill="white" fill-opacity="0.1"/>
<path d="M20.5 137.5C20.5 138.881 19.3807 140 18 140C16.6193 140 15.5 138.881 15.5 137.5C15.5 136.119 16.6193 135 18 135C19.3807 135 20.5 136.119 20.5 137.5Z" fill="white" fill-opacity="0.1"/>
<path d="M35.5 137.5C35.5 138.881 34.3807 140 33 140C31.6193 140 30.5 138.881 30.5 137.5C30.5 136.119 31.6193 135 33 135C34.3807 135 35.5 136.119 35.5 137.5Z" fill="white" fill-opacity="0.1"/>
<path d="M50.5 137.5C50.5 138.881 49.3807 140 48 140C46.6193 140 45.5 138.881 45.5 137.5C45.5 136.119 46.6193 135 48 135C49.3807 135 50.5 136.119 50.5 137.5Z" fill="white" fill-opacity="0.1"/>
<path d="M65.5 137.5C65.5 138.881 64.3807 140 63 140C61.6193 140 60.5 138.881 60.5 137.5C60.5 136.119 61.6193 135 63 135C64.3807 135 65.5 136.119 65.5 137.5Z" fill="white" fill-opacity="0.1"/>
<path d="M80.5 137.5C80.5 138.881 79.3807 140 78 140C76.6193 140 75.5 138.881 75.5 137.5C75.5 136.119 76.6193 135 78 135C79.3807 135 80.5 136.119 80.5 137.5Z" fill="white" fill-opacity="0.1"/>
<path d="M95.5 137.5C95.5 138.881 94.3807 140 93 140C91.6193 140 90.5 138.881 90.5 137.5C90.5 136.119 91.6193 135 93 135C94.3807 135 95.5 136.119 95.5 137.5Z" fill="white" fill-opacity="0.1"/>
<path d="M110.5 137.5C110.5 138.881 109.381 140 108 140C106.619 140 105.5 138.881 105.5 137.5C105.5 136.119 106.619 135 108 135C109.381 135 110.5 136.119 110.5 137.5Z" fill="white" fill-opacity="0.1"/>
<path d="M125.5 137.5C125.5 138.881 124.381 140 123 140C121.619 140 120.5 138.881 120.5 137.5C120.5 136.119 121.619 135 123 135C124.381 135 125.5 136.119 125.5 137.5Z" fill="white" fill-opacity="0.1"/>
<path d="M140.5 137.5C140.5 138.881 139.381 140 138 140C136.619 140 135.5 138.881 135.5 137.5C135.5 136.119 136.619 135 138 135C139.381 135 140.5 136.119 140.5 137.5Z" fill="white" fill-opacity="0.1"/>
<path d="M155.5 137.5C155.5 138.881 154.381 140 153 140C151.619 140 150.5 138.881 150.5 137.5C150.5 136.119 151.619 135 153 135C154.381 135 155.5 136.119 155.5 137.5Z" fill="white" fill-opacity="0.1"/>
<path d="M170.5 137.5C170.5 138.881 169.381 140 168 140C166.619 140 165.5 138.881 165.5 137.5C165.5 136.119 166.619 135 168 135C169.381 135 170.5 136.119 170.5 137.5Z" fill="white" fill-opacity="0.1"/>
<path d="M185.5 137.5C185.5 138.881 184.381 140 183 140C181.619 140 180.5 138.881 180.5 137.5C180.5 136.119 181.619 135 183 135C184.381 135 185.5 136.119 185.5 137.5Z" fill="white" fill-opacity="0.1"/>
<path d="M200.5 137.5C200.5 138.881 199.381 140 198 140C196.619 140 195.5 138.881 195.5 137.5C195.5 136.119 196.619 135 198 135C199.381 135 200.5 136.119 200.5 137.5Z" fill="white" fill-opacity="0.1"/>
<path d="M5.5 152.5C5.5 153.881 4.38071 155 3 155C1.61929 155 0.5 153.881 0.5 152.5C0.5 151.119 1.61929 150 3 150C4.38071 150 5.5 151.119 5.5 152.5Z" fill="white" fill-opacity="0.1"/>
<path d="M20.5 152.5C20.5 153.881 19.3807 155 18 155C16.6193 155 15.5 153.881 15.5 152.5C15.5 151.119 16.6193 150 18 150C19.3807 150 20.5 151.119 20.5 152.5Z" fill="white" fill-opacity="0.1"/>
<path d="M35.5 152.5C35.5 153.881 34.3807 155 33 155C31.6193 155 30.5 153.881 30.5 152.5C30.5 151.119 31.6193 150 33 150C34.3807 150 35.5 151.119 35.5 152.5Z" fill="white" fill-opacity="0.1"/>
<path d="M50.5 152.5C50.5 153.881 49.3807 155 48 155C46.6193 155 45.5 153.881 45.5 152.5C45.5 151.119 46.6193 150 48 150C49.3807 150 50.5 151.119 50.5 152.5Z" fill="white" fill-opacity="0.1"/>
<path d="M65.5 152.5C65.5 153.881 64.3807 155 63 155C61.6193 155 60.5 153.881 60.5 152.5C60.5 151.119 61.6193 150 63 150C64.3807 150 65.5 151.119 65.5 152.5Z" fill="white" fill-opacity="0.1"/>
<path d="M80.5 152.5C80.5 153.881 79.3807 155 78 155C76.6193 155 75.5 153.881 75.5 152.5C75.5 151.119 76.6193 150 78 150C79.3807 150 80.5 151.119 80.5 152.5Z" fill="white" fill-opacity="0.1"/>
<path d="M95.5 152.5C95.5 153.881 94.3807 155 93 155C91.6193 155 90.5 153.881 90.5 152.5C90.5 151.119 91.6193 150 93 150C94.3807 150 95.5 151.119 95.5 152.5Z" fill="white" fill-opacity="0.1"/>
<path d="M110.5 152.5C110.5 153.881 109.381 155 108 155C106.619 155 105.5 153.881 105.5 152.5C105.5 151.119 106.619 150 108 150C109.381 150 110.5 151.119 110.5 152.5Z" fill="white" fill-opacity="0.1"/>
<path d="M125.5 152.5C125.5 153.881 124.381 155 123 155C121.619 155 120.5 153.881 120.5 152.5C120.5 151.119 121.619 150 123 150C124.381 150 125.5 151.119 125.5 152.5Z" fill="white" fill-opacity="0.1"/>
<path d="M140.5 152.5C140.5 153.881 139.381 155 138 155C136.619 155 135.5 153.881 135.5 152.5C135.5 151.119 136.619 150 138 150C139.381 150 140.5 151.119 140.5 152.5Z" fill="white" fill-opacity="0.1"/>
<path d="M155.5 152.5C155.5 153.881 154.381 155 153 155C151.619 155 150.5 153.881 150.5 152.5C150.5 151.119 151.619 150 153 150C154.381 150 155.5 151.119 155.5 152.5Z" fill="white" fill-opacity="0.1"/>
<path d="M170.5 152.5C170.5 153.881 169.381 155 168 155C166.619 155 165.5 153.881 165.5 152.5C165.5 151.119 166.619 150 168 150C169.381 150 170.5 151.119 170.5 152.5Z" fill="white" fill-opacity="0.1"/>
<path d="M185.5 152.5C185.5 153.881 184.381 155 183 155C181.619 155 180.5 153.881 180.5 152.5C180.5 151.119 181.619 150 183 150C184.381 150 185.5 151.119 185.5 152.5Z" fill="white" fill-opacity="0.1"/>
<path d="M200.5 152.5C200.5 153.881 199.381 155 198 155C196.619 155 195.5 153.881 195.5 152.5C195.5 151.119 196.619 150 198 150C199.381 150 200.5 151.119 200.5 152.5Z" fill="white" fill-opacity="0.1"/>
<path d="M5.5 167.5C5.5 168.881 4.38071 170 3 170C1.61929 170 0.5 168.881 0.5 167.5C0.5 166.119 1.61929 165 3 165C4.38071 165 5.5 166.119 5.5 167.5Z" fill="white" fill-opacity="0.1"/>
<path d="M20.5 167.5C20.5 168.881 19.3807 170 18 170C16.6193 170 15.5 168.881 15.5 167.5C15.5 166.119 16.6193 165 18 165C19.3807 165 20.5 166.119 20.5 167.5Z" fill="white" fill-opacity="0.1"/>
<path d="M35.5 167.5C35.5 168.881 34.3807 170 33 170C31.6193 170 30.5 168.881 30.5 167.5C30.5 166.119 31.6193 165 33 165C34.3807 165 35.5 166.119 35.5 167.5Z" fill="white" fill-opacity="0.1"/>
<path d="M50.5 167.5C50.5 168.881 49.3807 170 48 170C46.6193 170 45.5 168.881 45.5 167.5C45.5 166.119 46.6193 165 48 165C49.3807 165 50.5 166.119 50.5 167.5Z" fill="white" fill-opacity="0.1"/>
<path d="M65.5 167.5C65.5 168.881 64.3807 170 63 170C61.6193 170 60.5 168.881 60.5 167.5C60.5 166.119 61.6193 165 63 165C64.3807 165 65.5 166.119 65.5 167.5Z" fill="white" fill-opacity="0.1"/>
<path d="M80.5 167.5C80.5 168.881 79.3807 170 78 170C76.6193 170 75.5 168.881 75.5 167.5C75.5 166.119 76.6193 165 78 165C79.3807 165 80.5 166.119 80.5 167.5Z" fill="white" fill-opacity="0.1"/>
<path d="M95.5 167.5C95.5 168.881 94.3807 170 93 170C91.6193 170 90.5 168.881 90.5 167.5C90.5 166.119 91.6193 165 93 165C94.3807 165 95.5 166.119 95.5 167.5Z" fill="white" fill-opacity="0.1"/>
<path d="M110.5 167.5C110.5 168.881 109.381 170 108 170C106.619 170 105.5 168.881 105.5 167.5C105.5 166.119 106.619 165 108 165C109.381 165 110.5 166.119 110.5 167.5Z" fill="white" fill-opacity="0.1"/>
<path d="M125.5 167.5C125.5 168.881 124.381 170 123 170C121.619 170 120.5 168.881 120.5 167.5C120.5 166.119 121.619 165 123 165C124.381 165 125.5 166.119 125.5 167.5Z" fill="white" fill-opacity="0.1"/>
<path d="M140.5 167.5C140.5 168.881 139.381 170 138 170C136.619 170 135.5 168.881 135.5 167.5C135.5 166.119 136.619 165 138 165C139.381 165 140.5 166.119 140.5 167.5Z" fill="white" fill-opacity="0.1"/>
<path d="M155.5 167.5C155.5 168.881 154.381 170 153 170C151.619 170 150.5 168.881 150.5 167.5C150.5 166.119 151.619 165 153 165C154.381 165 155.5 166.119 155.5 167.5Z" fill="white" fill-opacity="0.1"/>
<path d="M170.5 167.5C170.5 168.881 169.381 170 168 170C166.619 170 165.5 168.881 165.5 167.5C165.5 166.119 166.619 165 168 165C169.381 165 170.5 166.119 170.5 167.5Z" fill="white" fill-opacity="0.1"/>
<path d="M185.5 167.5C185.5 168.881 184.381 170 183 170C181.619 170 180.5 168.881 180.5 167.5C180.5 166.119 181.619 165 183 165C184.381 165 185.5 166.119 185.5 167.5Z" fill="white" fill-opacity="0.1"/>
<path d="M200.5 167.5C200.5 168.881 199.381 170 198 170C196.619 170 195.5 168.881 195.5 167.5C195.5 166.119 196.619 165 198 165C199.381 165 200.5 166.119 200.5 167.5Z" fill="white" fill-opacity="0.1"/>
<path d="M5.5 182.5C5.5 183.881 4.38071 185 3 185C1.61929 185 0.5 183.881 0.5 182.5C0.5 181.119 1.61929 180 3 180C4.38071 180 5.5 181.119 5.5 182.5Z" fill="white" fill-opacity="0.1"/>
<path d="M20.5 182.5C20.5 183.881 19.3807 185 18 185C16.6193 185 15.5 183.881 15.5 182.5C15.5 181.119 16.6193 180 18 180C19.3807 180 20.5 181.119 20.5 182.5Z" fill="white" fill-opacity="0.1"/>
<path d="M35.5 182.5C35.5 183.881 34.3807 185 33 185C31.6193 185 30.5 183.881 30.5 182.5C30.5 181.119 31.6193 180 33 180C34.3807 180 35.5 181.119 35.5 182.5Z" fill="white" fill-opacity="0.1"/>
<path d="M50.5 182.5C50.5 183.881 49.3807 185 48 185C46.6193 185 45.5 183.881 45.5 182.5C45.5 181.119 46.6193 180 48 180C49.3807 180 50.5 181.119 50.5 182.5Z" fill="white" fill-opacity="0.1"/>
<path d="M65.5 182.5C65.5 183.881 64.3807 185 63 185C61.6193 185 60.5 183.881 60.5 182.5C60.5 181.119 61.6193 180 63 180C64.3807 180 65.5 181.119 65.5 182.5Z" fill="white" fill-opacity="0.1"/>
<path d="M80.5 182.5C80.5 183.881 79.3807 185 78 185C76.6193 185 75.5 183.881 75.5 182.5C75.5 181.119 76.6193 180 78 180C79.3807 180 80.5 181.119 80.5 182.5Z" fill="white" fill-opacity="0.1"/>
<path d="M95.5 182.5C95.5 183.881 94.3807 185 93 185C91.6193 185 90.5 183.881 90.5 182.5C90.5 181.119 91.6193 180 93 180C94.3807 180 95.5 181.119 95.5 182.5Z" fill="white" fill-opacity="0.1"/>
<path d="M110.5 182.5C110.5 183.881 109.381 185 108 185C106.619 185 105.5 183.881 105.5 182.5C105.5 181.119 106.619 180 108 180C109.381 180 110.5 181.119 110.5 182.5Z" fill="white" fill-opacity="0.1"/>
<path d="M125.5 182.5C125.5 183.881 124.381 185 123 185C121.619 185 120.5 183.881 120.5 182.5C120.5 181.119 121.619 180 123 180C124.381 180 125.5 181.119 125.5 182.5Z" fill="white" fill-opacity="0.1"/>
<path d="M140.5 182.5C140.5 183.881 139.381 185 138 185C136.619 185 135.5 183.881 135.5 182.5C135.5 181.119 136.619 180 138 180C139.381 180 140.5 181.119 140.5 182.5Z" fill="white" fill-opacity="0.1"/>
<path d="M155.5 182.5C155.5 183.881 154.381 185 153 185C151.619 185 150.5 183.881 150.5 182.5C150.5 181.119 151.619 180 153 180C154.381 180 155.5 181.119 155.5 182.5Z" fill="white" fill-opacity="0.1"/>
<path d="M170.5 182.5C170.5 183.881 169.381 185 168 185C166.619 185 165.5 183.881 165.5 182.5C165.5 181.119 166.619 180 168 180C169.381 180 170.5 181.119 170.5 182.5Z" fill="white" fill-opacity="0.1"/>
<path d="M185.5 182.5C185.5 183.881 184.381 185 183 185C181.619 185 180.5 183.881 180.5 182.5C180.5 181.119 181.619 180 183 180C184.381 180 185.5 181.119 185.5 182.5Z" fill="white" fill-opacity="0.1"/>
<path d="M200.5 182.5C200.5 183.881 199.381 185 198 185C196.619 185 195.5 183.881 195.5 182.5C195.5 181.119 196.619 180 198 180C199.381 180 200.5 181.119 200.5 182.5Z" fill="white" fill-opacity="0.1"/>
<path d="M5.5 197.5C5.5 198.881 4.38071 200 3 200C1.61929 200 0.5 198.881 0.5 197.5C0.5 196.119 1.61929 195 3 195C4.38071 195 5.5 196.119 5.5 197.5Z" fill="white" fill-opacity="0.1"/>
<path d="M20.5 197.5C20.5 198.881 19.3807 200 18 200C16.6193 200 15.5 198.881 15.5 197.5C15.5 196.119 16.6193 195 18 195C19.3807 195 20.5 196.119 20.5 197.5Z" fill="white" fill-opacity="0.1"/>
<path d="M35.5 197.5C35.5 198.881 34.3807 200 33 200C31.6193 200 30.5 198.881 30.5 197.5C30.5 196.119 31.6193 195 33 195C34.3807 195 35.5 196.119 35.5 197.5Z" fill="white" fill-opacity="0.1"/>
<path d="M50.5 197.5C50.5 198.881 49.3807 200 48 200C46.6193 200 45.5 198.881 45.5 197.5C45.5 196.119 46.6193 195 48 195C49.3807 195 50.5 196.119 50.5 197.5Z" fill="white" fill-opacity="0.1"/>
<path d="M65.5 197.5C65.5 198.881 64.3807 200 63 200C61.6193 200 60.5 198.881 60.5 197.5C60.5 196.119 61.6193 195 63 195C64.3807 195 65.5 196.119 65.5 197.5Z" fill="white" fill-opacity="0.1"/>
<path d="M80.5 197.5C80.5 198.881 79.3807 200 78 200C76.6193 200 75.5 198.881 75.5 197.5C75.5 196.119 76.6193 195 78 195C79.3807 195 80.5 196.119 80.5 197.5Z" fill="white" fill-opacity="0.1"/>
<path d="M95.5 197.5C95.5 198.881 94.3807 200 93 200C91.6193 200 90.5 198.881 90.5 197.5C90.5 196.119 91.6193 195 93 195C94.3807 195 95.5 196.119 95.5 197.5Z" fill="white" fill-opacity="0.1"/>
<path d="M110.5 197.5C110.5 198.881 109.381 200 108 200C106.619 200 105.5 198.881 105.5 197.5C105.5 196.119 106.619 195 108 195C109.381 195 110.5 196.119 110.5 197.5Z" fill="white" fill-opacity="0.1"/>
<path d="M125.5 197.5C125.5 198.881 124.381 200 123 200C121.619 200 120.5 198.881 120.5 197.5C120.5 196.119 121.619 195 123 195C124.381 195 125.5 196.119 125.5 197.5Z" fill="white" fill-opacity="0.1"/>
<path d="M140.5 197.5C140.5 198.881 139.381 200 138 200C136.619 200 135.5 198.881 135.5 197.5C135.5 196.119 136.619 195 138 195C139.381 195 140.5 196.119 140.5 197.5Z" fill="white" fill-opacity="0.1"/>
<path d="M155.5 197.5C155.5 198.881 154.381 200 153 200C151.619 200 150.5 198.881 150.5 197.5C150.5 196.119 151.619 195 153 195C154.381 195 155.5 196.119 155.5 197.5Z" fill="white" fill-opacity="0.1"/>
<path d="M170.5 197.5C170.5 198.881 169.381 200 168 200C166.619 200 165.5 198.881 165.5 197.5C165.5 196.119 166.619 195 168 195C169.381 195 170.5 196.119 170.5 197.5Z" fill="white" fill-opacity="0.1"/>
<path d="M185.5 197.5C185.5 198.881 184.381 200 183 200C181.619 200 180.5 198.881 180.5 197.5C180.5 196.119 181.619 195 183 195C184.381 195 185.5 196.119 185.5 197.5Z" fill="white" fill-opacity="0.1"/>
<path d="M200.5 197.5C200.5 198.881 199.381 200 198 200C196.619 200 195.5 198.881 195.5 197.5C195.5 196.119 196.619 195 198 195C199.381 195 200.5 196.119 200.5 197.5Z" fill="white" fill-opacity="0.1"/>
</svg>
