<svg width="14" height="14" viewBox="0 0 14 14" fill="none" xmlns="http://www.w3.org/2000/svg">
<path d="M13.09 1.122C11.018 6.46067 9.45933 10.474 8.414 13.162C8.40467 13.1993 8.39067 13.218 8.372 13.218C8.35333 13.218 8.33467 13.1993 8.316 13.162C8.18533 12.8633 8.092 12.644 8.036 12.504L6.104 7.968C6.076 7.90267 6.02467 7.85133 5.95 7.814C4.41 7.20733 2.74867 6.55867 0.966 5.868C0.956667 5.85867 0.938 5.84933 0.91 5.84C0.882 5.82133 0.872667 5.80267 0.882 5.784C0.891333 5.76533 0.914667 5.75133 0.952 5.742L12.978 1.024C13.0713 0.986666 13.118 0.972666 13.118 0.981999C13.1273 0.991333 13.118 1.038 13.09 1.122Z" fill="#AEF238"/>
<path d="M13.09 1.122L14.0223 1.48382L14.031 1.46122L14.0387 1.43822L13.09 1.122ZM8.414 13.162L7.482 12.7996L7.45915 12.8583L7.44386 12.9195L8.414 13.162ZM8.316 13.162L7.39984 13.5628L7.41011 13.5863L7.42157 13.6092L8.316 13.162ZM8.036 12.504L8.96448 12.1326L8.96036 12.1223L8.95602 12.1121L8.036 12.504ZM6.104 7.968L7.02403 7.57614L7.02315 7.57408L6.104 7.968ZM5.95 7.814L6.39721 6.91957L6.35766 6.8998L6.31652 6.88359L5.95 7.814ZM0.966 5.868L0.258899 6.57511L0.408049 6.72426L0.604732 6.80046L0.966 5.868ZM0.91 5.84L0.355299 6.67205L0.466724 6.74633L0.593767 6.78868L0.91 5.84ZM0.882 5.784L-0.0124245 5.33678L-0.0124278 5.33679L0.882 5.784ZM0.952 5.742L1.19454 6.71214L1.25714 6.69649L1.31722 6.67292L0.952 5.742ZM12.978 1.024L13.3432 1.95494L13.3494 1.95248L12.978 1.024ZM13.118 0.981999H12.118V1.3962L12.4109 1.68908L13.118 0.981999ZM12.1578 0.760183C10.0858 6.0988 8.5272 10.1119 7.482 12.7996L9.346 13.5244C10.3915 10.8361 11.9502 6.82253 14.0223 1.48382L12.1578 0.760183ZM7.44386 12.9195C7.45321 12.882 7.48813 12.7485 7.5965 12.604C7.72598 12.4314 7.98847 12.218 8.372 12.218V14.218C8.7742 14.218 9.05302 13.9953 9.1965 13.804C9.31887 13.6408 9.36546 13.4793 9.38414 13.4045L7.44386 12.9195ZM8.372 12.218C8.72142 12.218 8.95144 12.3972 9.05111 12.4969C9.14873 12.5945 9.19623 12.6864 9.21043 12.7148L7.42157 13.6092C7.45443 13.6749 7.52061 13.7948 7.63689 13.9111C7.75523 14.0294 8.00391 14.218 8.372 14.218V12.218ZM9.23216 12.7612C9.10205 12.4638 9.01416 12.2568 8.96448 12.1326L7.10752 12.8754C7.16984 13.0312 7.26862 13.2629 7.39984 13.5628L9.23216 12.7612ZM8.95602 12.1121L7.02402 7.57614L5.18398 8.35986L7.11598 12.8959L8.95602 12.1121ZM7.02315 7.57408C6.8862 7.25455 6.64463 7.04328 6.39721 6.91957L5.50279 8.70843C5.40471 8.65939 5.2658 8.55078 5.18485 8.36192L7.02315 7.57408ZM6.31652 6.88359C4.77453 6.27614 3.11143 5.62678 1.32727 4.93554L0.604732 6.80046C2.38591 7.49055 4.04547 8.13853 5.58348 8.74441L6.31652 6.88359ZM1.6731 5.16089C1.48358 4.97137 1.26255 4.90342 1.22623 4.89132L0.593767 6.78868C0.579665 6.78398 0.544101 6.77158 0.497786 6.74843C0.460063 6.72957 0.361181 6.67739 0.258899 6.57511L1.6731 5.16089ZM1.4647 5.00795C1.51582 5.04203 1.66942 5.15077 1.77643 5.36479C1.83524 5.48241 1.8785 5.6299 1.8785 5.798C1.8785 5.9661 1.83524 6.11359 1.77643 6.23121L-0.0124278 5.33679C-0.157858 5.62765 -0.157857 5.96835 -0.0124272 6.25921C0.103913 6.49189 0.276177 6.6193 0.355299 6.67205L1.4647 5.00795ZM1.77642 6.23122C1.67377 6.43652 1.52369 6.55537 1.42099 6.61699C1.32109 6.67693 1.23535 6.70194 1.19454 6.71214L0.709461 4.77186C0.609894 4.79675 0.203109 4.90572 -0.0124245 5.33678L1.77642 6.23122ZM1.31722 6.67292L13.3432 1.95492L12.6128 0.0930768L0.586784 4.81108L1.31722 6.67292ZM13.3494 1.95248C13.391 1.93584 13.3918 1.93689 13.3704 1.94332C13.3628 1.9456 13.347 1.95017 13.3255 1.95518C13.3075 1.9594 13.2651 1.96878 13.2088 1.97441C13.1795 1.97734 13.0208 1.99513 12.8285 1.93742C12.7223 1.90556 12.5391 1.83094 12.3775 1.6532C12.1971 1.45478 12.118 1.20951 12.118 0.981999H14.118C14.118 0.75332 14.0385 0.507062 13.8574 0.307843C13.6951 0.129304 13.5108 0.0540596 13.4032 0.0217642C13.2079 -0.0368189 13.0449 -0.0191749 13.0097 -0.0156625C12.9032 -0.00501128 12.8178 0.0210142 12.7957 0.0276737C12.7275 0.0481054 12.6584 0.0748251 12.6066 0.0955231L13.3494 1.95248ZM12.4109 1.68908C12.2382 1.51638 12.175 1.32769 12.1505 1.22978C12.1245 1.12581 12.1215 1.04076 12.1215 0.995999C12.1215 0.90723 12.1345 0.842721 12.1374 0.827887C12.1451 0.78972 12.1513 0.775812 12.1413 0.805776L14.0387 1.43822C14.0567 1.38419 14.0816 1.30495 14.0986 1.22011C14.1062 1.18195 14.1215 1.09877 14.1215 0.995999C14.1215 0.944235 14.1179 0.853354 14.0908 0.744721C14.0651 0.642143 14.0002 0.449947 13.8251 0.274913L12.4109 1.68908Z" fill="#212121"/>
</svg>
